<?xml version="1.0" encoding="utf-8"?>
<!-- Generator: Adobe Illustrator 26.0.1, SVG Export Plug-In . SVG Version: 6.00 Build 0)  -->
<svg version="1.1" id="Capa_1" xmlns="http://www.w3.org/2000/svg" xmlns:xlink="http://www.w3.org/1999/xlink" x="0px" y="0px"
	 viewBox="0 0 1394 209.8" style="enable-background:new 0 0 1394 209.8;" xml:space="preserve">
<style type="text/css">
	.st0{fill:#DB2979;}
	.st1{fill:#8072B2;}
	.st2{fill:#EF7C04;}
	.st3{fill:#E0D300;}
	.st4{fill:#48A9A1;}
	.st5{fill:#FDC506;}
	.st6{fill:#34ACE3;}
</style>
<g id="Grupo_1129" transform="translate(0 -1308.895)">
	<g id="Grupo_1126" transform="translate(0 1308.895)">
		<path id="Trazado_231" class="st0" d="M412.8,147.1c0,2.7-2.2,4.9-4.9,4.9s-4.9-2.2-4.9-4.9c0-2.7,2.2-4.9,4.9-4.9c0,0,0,0,0,0
			C410.6,142.1,412.8,144.4,412.8,147.1"/>
		<path id="Trazado_232" class="st1" d="M412.8,170.2c0,2.7-2.2,4.9-4.9,4.9s-4.9-2.2-4.9-4.9s2.2-4.9,4.9-4.9c0,0,0,0,0,0
			C410.6,165.2,412.8,167.4,412.8,170.2"/>
		<path id="Trazado_233" class="st0" d="M366.6,100.9c0,2.7-2.2,4.9-4.9,4.9c-2.7,0-4.9-2.2-4.9-4.9s2.2-4.9,4.9-4.9c0,0,0,0,0,0
			C364.4,96,366.6,98.2,366.6,100.9C366.6,100.9,366.6,100.9,366.6,100.9"/>
		<path id="Trazado_234" class="st0" d="M297.4,77.8c0,2.7-2.2,4.9-4.9,4.9s-4.9-2.2-4.9-4.9c0-2.7,2.2-4.9,4.9-4.9c0,0,0,0,0,0
			C295.2,72.9,297.4,75.1,297.4,77.8"/>
		<path id="Trazado_235" class="st0" d="M251.2,31.7c0,2.7-2.2,4.9-4.9,4.9s-4.9-2.2-4.9-4.9s2.2-4.9,4.9-4.9c0,0,0,0,0,0
			C249,26.7,251.2,28.9,251.2,31.7"/>
		<path id="Trazado_236" class="st2" d="M412.8,100.9c0,2.7-2.2,4.9-4.9,4.9c-2.7,0-4.9-2.2-4.9-4.9s2.2-4.9,4.9-4.9c0,0,0,0,0,0
			C410.6,96,412.8,98.2,412.8,100.9C412.8,100.9,412.8,100.9,412.8,100.9"/>
		<path id="Trazado_237" class="st2" d="M366.6,54.7c0,2.7-2.2,4.9-4.9,4.9s-4.9-2.2-4.9-4.9s2.2-4.9,4.9-4.9c0,0,0,0,0,0
			C364.4,49.8,366.6,52,366.6,54.7"/>
		<path id="Trazado_238" class="st2" d="M205,31.7c0,2.7-2.2,4.9-4.9,4.9s-4.9-2.2-4.9-4.9s2.2-4.9,4.9-4.9c0,0,0,0,0,0
			C202.8,26.7,205,28.9,205,31.7"/>
		<path id="Trazado_239" class="st0" d="M182,54.7c0,2.7-2.2,4.9-4.9,4.9s-4.9-2.2-4.9-4.9s2.2-4.9,4.9-4.9c0,0,0,0,0,0
			C179.8,49.8,182,52,182,54.7"/>
		<path id="Trazado_240" class="st3" d="M435.9,31.7c0,2.7-2.2,4.9-4.9,4.9s-4.9-2.2-4.9-4.9s2.2-4.9,4.9-4.9c0,0,0,0,0,0
			C433.7,26.7,435.9,28.9,435.9,31.7"/>
		<path id="Trazado_241" class="st3" d="M389.7,77.8c0,2.7-2.2,4.9-4.9,4.9s-4.9-2.2-4.9-4.9c0-2.7,2.2-4.9,4.9-4.9c0,0,0,0,0,0
			C387.5,72.9,389.7,75.1,389.7,77.8"/>
		<path id="Trazado_242" class="st3" d="M322.3,77.8c0,2.7-2.2,4.9-4.9,4.9s-4.9-2.2-4.9-4.9c0-2.7,2.2-4.9,4.9-4.9c0,0,0,0,0,0
			C320.1,72.9,322.3,75.1,322.3,77.8"/>
		<path id="Trazado_243" class="st3" d="M274.3,54.7c0,2.7-2.2,4.9-4.9,4.9s-4.9-2.2-4.9-4.9s2.2-4.9,4.9-4.9c0,0,0,0,0,0
			C272.1,49.8,274.3,52,274.3,54.7"/>
		<path id="Trazado_244" class="st3" d="M251.2,77.8c0,2.7-2.2,4.9-4.9,4.9s-4.9-2.2-4.9-4.9c0-2.7,2.2-4.9,4.9-4.9c0,0,0,0,0,0
			C249,72.9,251.2,75.1,251.2,77.8"/>
		<path id="Trazado_245" class="st3" d="M135.8,54.7c0,2.7-2.2,4.9-4.9,4.9s-4.9-2.2-4.9-4.9s2.2-4.9,4.9-4.9c0,0,0,0,0,0
			C133.6,49.8,135.8,52,135.8,54.7"/>
		<path id="Trazado_246" class="st1" d="M459,54.7c0,2.7-2.2,4.9-4.9,4.9s-4.9-2.2-4.9-4.9s2.2-4.9,4.9-4.9c0,0,0,0,0,0
			C456.8,49.8,459,52,459,54.7"/>
		<path id="Trazado_247" class="st1" d="M389.7,31.7c0,2.7-2.2,4.9-4.9,4.9s-4.9-2.2-4.9-4.9s2.2-4.9,4.9-4.9c0,0,0,0,0,0
			C387.5,26.7,389.7,28.9,389.7,31.7"/>
		<path id="Trazado_248" class="st1" d="M343.5,77.8c0,2.7-2.2,4.9-4.9,4.9s-4.9-2.2-4.9-4.9c0-2.7,2.2-4.9,4.9-4.9c0,0,0,0,0,0
			C341.3,72.9,343.5,75.1,343.5,77.8"/>
		<path id="Trazado_249" class="st1" d="M297.4,100.9c0,2.7-2.2,4.9-4.9,4.9c-2.7,0-4.9-2.2-4.9-4.9s2.2-4.9,4.9-4.9c0,0,0,0,0,0
			C295.2,96,297.4,98.2,297.4,100.9C297.4,100.9,297.4,100.9,297.4,100.9"/>
		<path id="Trazado_250" class="st1" d="M251.2,54.7c0,2.7-2.2,4.9-4.9,4.9s-4.9-2.2-4.9-4.9s2.2-4.9,4.9-4.9c0,0,0,0,0,0
			C249,49.8,251.2,52,251.2,54.7"/>
		<path id="Trazado_251" class="st1" d="M158.7,31.7c0,2.6-2.1,4.7-4.7,4.7c-2.6,0-4.7-2.1-4.7-4.7s2.1-4.7,4.7-4.7c0,0,0,0,0,0
			C156.6,26.9,158.7,29.1,158.7,31.7"/>
		<path id="Trazado_252" class="st1" d="M58.2,54.7c0,2.7-2.2,4.9-4.9,4.9s-4.9-2.2-4.9-4.9s2.2-4.9,4.9-4.9c0,0,0,0,0,0
			C56,49.8,58.2,52,58.2,54.7"/>
		<path id="Trazado_253" class="st4" d="M459,77.8c0,2.7-2.2,4.9-4.9,4.9s-4.9-2.2-4.9-4.9c0-2.7,2.2-4.9,4.9-4.9c0,0,0,0,0,0
			C456.8,72.9,459,75.1,459,77.8"/>
		<path id="Trazado_254" class="st4" d="M389.7,54.7c0,2.7-2.2,4.9-4.9,4.9s-4.9-2.2-4.9-4.9s2.2-4.9,4.9-4.9c0,0,0,0,0,0
			C387.5,49.8,389.7,52,389.7,54.7"/>
		<path id="Trazado_255" class="st4" d="M343.6,100.9c0,2.7-2.2,4.9-4.9,4.9c-2.7,0-4.9-2.2-4.9-4.9s2.2-4.9,4.9-4.9c0,0,0,0,0,0
			C341.3,96,343.6,98.2,343.6,100.9C343.6,100.9,343.6,100.9,343.6,100.9"/>
		<path id="Trazado_256" class="st4" d="M297.4,124c0,2.7-2.2,4.9-4.9,4.9s-4.9-2.2-4.9-4.9s2.2-4.9,4.9-4.9c0,0,0,0,0,0
			C295.2,119,297.4,121.3,297.4,124C297.4,124,297.4,124,297.4,124"/>
		<path id="Trazado_257" class="st4" d="M158.9,100.9c0,2.7-2.2,4.9-4.9,4.9c-2.7,0-4.9-2.2-4.9-4.9s2.2-4.9,4.9-4.9c0,0,0,0,0,0
			C156.6,96,158.9,98.2,158.9,100.9C158.9,100.9,158.9,100.9,158.9,100.9"/>
		<path id="Trazado_258" class="st4" d="M35.4,55.4c0,2.7-2.2,4.9-4.9,4.9c-2.7,0-4.9-2.2-4.9-4.9c0-2.7,2.2-4.9,4.9-4.9
			c0,0,0,0,0,0C33.2,50.5,35.4,52.7,35.4,55.4"/>
		<path id="Trazado_259" class="st5" d="M435.9,77.8c0,2.7-2.2,4.9-4.9,4.9s-4.9-2.2-4.9-4.9c0-2.7,2.2-4.9,4.9-4.9c0,0,0,0,0,0
			C433.7,72.9,435.9,75.1,435.9,77.8"/>
		<path id="Trazado_260" class="st5" d="M389.7,124c0,2.7-2.2,4.9-4.9,4.9s-4.9-2.2-4.9-4.9s2.2-4.9,4.9-4.9c0,0,0,0,0,0
			C387.5,119,389.7,121.3,389.7,124C389.7,124,389.7,124,389.7,124"/>
		<path id="Trazado_261" class="st5" d="M297.4,31.7c0,2.7-2.2,4.9-4.9,4.9s-4.9-2.2-4.9-4.9s2.2-4.9,4.9-4.9c0,0,0,0,0,0
			C295.2,26.7,297.4,28.9,297.4,31.7"/>
		<path id="Trazado_262" class="st5" d="M274.3,77.8c0,2.7-2.2,4.9-4.9,4.9s-4.9-2.2-4.9-4.9c0-2.7,2.2-4.9,4.9-4.9c0,0,0,0,0,0
			C272.1,72.9,274.3,75.1,274.3,77.8"/>
		<path id="Trazado_263" class="st5" d="M58.1,77.8c0,2.7-2.2,4.9-4.9,4.9s-4.9-2.2-4.9-4.9c0-2.7,2.2-4.9,4.9-4.9c0,0,0,0,0,0
			C55.9,72.9,58.1,75.1,58.1,77.8"/>
		<path id="Trazado_264" class="st5" d="M228.1,54.7c0,2.7-2.2,4.9-4.9,4.9s-4.9-2.2-4.9-4.9s2.2-4.9,4.9-4.9c0,0,0,0,0,0
			C225.9,49.8,228.1,52,228.1,54.7"/>
		<path id="Trazado_265" class="st5" d="M158.9,124c0,2.7-2.2,4.9-4.9,4.9c-2.7,0-4.9-2.2-4.9-4.9s2.2-4.9,4.9-4.9c0,0,0,0,0,0
			C156.6,119,158.9,121.3,158.9,124C158.9,124,158.9,124,158.9,124"/>
		<path id="Trazado_266" class="st6" d="M459,32.6c0,2.7-2.2,4.9-4.9,4.9s-4.9-2.2-4.9-4.9c0-2.7,2.2-4.9,4.9-4.9c0,0,0,0,0,0
			C456.8,27.8,459,29.9,459,32.6"/>
		<path id="Trazado_267" class="st6" d="M436.2,55.4c0,2.7-2.2,4.9-4.9,4.9c-2.7,0-4.9-2.2-4.9-4.9c0-2.7,2.2-4.9,4.9-4.9
			c0,0,0,0,0,0C434,50.5,436.2,52.7,436.2,55.4"/>
		<path id="Trazado_268" class="st6" d="M436.2,100.9c0,2.7-2.2,4.9-4.9,4.9c-2.7,0-4.9-2.2-4.9-4.9c0-2.7,2.2-4.9,4.9-4.9
			C434,96,436.2,98.2,436.2,100.9C436.2,100.9,436.2,100.9,436.2,100.9"/>
		<path id="Trazado_269" class="st6" d="M436.2,123.7c0,2.7-2.2,4.9-4.9,4.9c-2.7,0-4.9-2.2-4.9-4.9c0-2.7,2.2-4.9,4.9-4.9
			C434,118.8,436.2,121,436.2,123.7"/>
		<path id="Trazado_270" class="st6" d="M436.2,169.2c0,2.7-2.2,4.9-4.9,4.9s-4.9-2.2-4.9-4.9c0-2.7,2.2-4.9,4.9-4.9c0,0,0,0,0,0
			C434,164.3,436.2,166.5,436.2,169.2C436.2,169.2,436.2,169.2,436.2,169.2"/>
		<path id="Trazado_271" class="st6" d="M412.8,32.6c0,2.7-2.2,4.9-4.9,4.9s-4.9-2.2-4.9-4.9s2.2-4.9,4.9-4.9S412.8,29.9,412.8,32.6
			"/>
		<path id="Trazado_272" class="st6" d="M412.8,55.4c0,2.7-2.2,4.9-4.9,4.9s-4.9-2.2-4.9-4.9c0-2.7,2.2-4.9,4.9-4.9
			S412.8,52.7,412.8,55.4"/>
		<path id="Trazado_273" class="st6" d="M412.8,78.2c0,2.7-2.2,4.9-4.9,4.9s-4.9-2.2-4.9-4.9s2.2-4.9,4.9-4.9S412.8,75.5,412.8,78.2
			"/>
		<path id="Trazado_274" class="st6" d="M412.7,123.7c0,2.7-2.2,4.9-4.9,4.9c-2.7,0-4.9-2.2-4.9-4.9c0-2.7,2.2-4.9,4.9-4.9
			C410.5,118.8,412.7,121,412.7,123.7"/>
		<path id="Trazado_275" class="st6" d="M389.6,100.9c0,2.7-2.2,4.9-4.9,4.9c-2.7,0-4.9-2.2-4.9-4.9c0-2.7,2.2-4.9,4.9-4.9
			C387.4,96,389.6,98.2,389.6,100.9C389.6,100.9,389.6,100.9,389.6,100.9"/>
		<path id="Trazado_276" class="st6" d="M366.7,32.6c0,2.7-2.2,4.9-4.9,4.9s-4.9-2.2-4.9-4.9s2.2-4.9,4.9-4.9S366.7,29.9,366.7,32.6
			"/>
		<path id="Trazado_277" class="st6" d="M366.7,78.2c0,2.7-2.2,4.9-4.9,4.9s-4.9-2.2-4.9-4.9s2.2-4.9,4.9-4.9S366.7,75.5,366.7,78.2
			"/>
		<path id="Trazado_278" class="st6" d="M366.5,123.7c0,2.7-2.2,4.9-4.9,4.9c-2.7,0-4.9-2.2-4.9-4.9c0-2.7,2.2-4.9,4.9-4.9
			c0,0,0,0,0,0C364.4,118.8,366.5,121,366.5,123.7"/>
		<path id="Trazado_279" class="st6" d="M297.4,54.7c0,2.7-2.2,4.9-4.9,4.9s-4.9-2.2-4.9-4.9s2.2-4.9,4.9-4.9c0,0,0,0,0,0
			C295.2,49.8,297.4,52,297.4,54.7"/>
		<path id="Trazado_280" class="st6" d="M343.5,31.7c0,2.7-2.2,4.9-4.9,4.9s-4.9-2.2-4.9-4.9s2.2-4.9,4.9-4.9c0,0,0,0,0,0
			C341.3,26.7,343.5,28.9,343.5,31.7"/>
		<path id="Trazado_281" class="st6" d="M343.2,55.4c0,2.7-2.2,4.9-4.9,4.9s-4.9-2.2-4.9-4.9c0-2.7,2.2-4.9,4.9-4.9
			S343.2,52.7,343.2,55.4"/>
		<path id="Trazado_282" class="st6" d="M322.4,32.6c0,2.7-2.2,4.9-4.9,4.9s-4.9-2.2-4.9-4.9s2.2-4.9,4.9-4.9S322.4,29.9,322.4,32.6
			"/>
		<path id="Trazado_283" class="st6" d="M322.4,55.4c0,2.7-2.2,4.9-4.9,4.9s-4.9-2.2-4.9-4.9c0-2.7,2.2-4.9,4.9-4.9
			S322.4,52.7,322.4,55.4"/>
		<path id="Trazado_284" class="st6" d="M322.3,100.9c0,2.7-2.2,4.9-4.9,4.9c-2.7,0-4.9-2.2-4.9-4.9s2.2-4.9,4.9-4.9c0,0,0,0,0,0
			C320.1,96,322.3,98.2,322.3,100.9C322.3,100.9,322.3,100.9,322.3,100.9"/>
		<path id="Trazado_285" class="st6" d="M322.3,124c0,2.7-2.2,4.9-4.9,4.9s-4.9-2.2-4.9-4.9s2.2-4.9,4.9-4.9c0,0,0,0,0,0
			C320.1,119,322.3,121.3,322.3,124C322.3,124,322.3,124,322.3,124"/>
		<path id="Trazado_286" class="st6" d="M274.3,31.7c0,2.7-2.2,4.9-4.9,4.9s-4.9-2.2-4.9-4.9s2.2-4.9,4.9-4.9c0,0,0,0,0,0
			C272.1,26.7,274.3,28.9,274.3,31.7"/>
		<path id="Trazado_287" class="st6" d="M228.1,31.7c0,2.7-2.2,4.9-4.9,4.9s-4.9-2.2-4.9-4.9s2.2-4.9,4.9-4.9c0,0,0,0,0,0
			C225.9,26.7,228.1,28.9,228.1,31.7"/>
		<path id="Trazado_288" class="st6" d="M182,31.7c0,2.7-2.2,4.9-4.9,4.9s-4.9-2.2-4.9-4.9s2.2-4.9,4.9-4.9c0,0,0,0,0,0
			C179.8,26.7,182,28.9,182,31.7"/>
		<path id="Trazado_289" class="st6" d="M112.7,54.7c0,2.7-2.2,4.9-4.9,4.9c-2.7,0-4.9-2.2-4.9-4.9s2.2-4.9,4.9-4.9c0,0,0,0,0,0
			C110.5,49.8,112.7,52,112.7,54.7"/>
	</g>
	<g id="Grupo_1127" transform="translate(450.611 1308.895)">
		<path id="Trazado_231-2" class="st0" d="M73.4,147.1c0,2.8,2.3,5,5.1,4.9c2.8,0,5.1-2.2,5.1-4.9c0-2.8-2.3-5-5.1-4.9
			C75.7,142.1,73.4,144.3,73.4,147.1"/>
		<path id="Trazado_232-2" class="st1" d="M73.4,170.2c0,2.8,2.3,5,5.1,4.9c2.8,0,5.1-2.2,5.1-4.9c0-2.8-2.3-5-5.1-4.9
			C75.7,165.2,73.4,167.4,73.4,170.2"/>
		<path id="Trazado_233-2" class="st0" d="M121.1,100.9c0,2.8,2.3,5,5.1,4.9c2.8,0,5.1-2.2,5.1-4.9c0-2.8-2.3-5-5.1-4.9
			C123.4,95.9,121.1,98.1,121.1,100.9"/>
		<path id="Trazado_234-2" class="st0" d="M192.6,77.8c0,2.8,2.3,5,5.1,4.9c2.8,0,5.1-2.2,5.1-4.9c0-2.8-2.3-5-5.1-4.9
			C195,72.8,192.7,75.1,192.6,77.8"/>
		<path id="Trazado_235-2" class="st0" d="M240.4,31.7c0,2.8,2.3,5,5.1,4.9c2.8,0,5.1-2.2,5.1-4.9c0-2.8-2.3-5-5.1-4.9
			C242.7,26.7,240.4,28.9,240.4,31.7"/>
		<path id="Trazado_236-2" class="st2" d="M73.4,100.9c0,2.8,2.3,5,5.1,4.9c2.8,0,5.1-2.2,5.1-4.9c0-2.8-2.3-5-5.1-4.9
			C75.7,95.9,73.4,98.1,73.4,100.9"/>
		<path id="Trazado_237-2" class="st2" d="M121.1,54.7c0,2.8,2.3,5,5.1,4.9c2.8,0,5.1-2.2,5.1-4.9c0-2.8-2.3-5-5.1-4.9
			C123.4,49.8,121.1,52,121.1,54.7"/>
		<path id="Trazado_238-2" class="st2" d="M288.1,31.7c0,2.8,2.3,5,5.1,4.9c2.8,0,5.1-2.2,5.1-4.9c0-2.8-2.3-5-5.1-4.9
			C290.4,26.7,288.1,28.9,288.1,31.7"/>
		<path id="Trazado_239-2" class="st0" d="M311.9,54.7c0,2.8,2.3,5,5.1,4.9c2.8,0,5.1-2.2,5.1-4.9c0-2.8-2.3-5-5.1-4.9
			C314.3,49.8,312,52,311.9,54.7"/>
		<path id="Trazado_240-2" class="st3" d="M49.5,31.7c0,2.8,2.3,5,5.1,4.9c2.8,0,5.1-2.2,5.1-4.9c0-2.8-2.3-5-5.1-4.9
			C51.9,26.7,49.6,28.9,49.5,31.7"/>
		<path id="Trazado_241-2" class="st3" d="M97.2,77.8c0,2.8,2.3,5,5.1,4.9c2.8,0,5.1-2.2,5.1-4.9c0-2.8-2.3-5-5.1-4.9
			C99.6,72.8,97.3,75.1,97.2,77.8"/>
		<path id="Trazado_242-2" class="st3" d="M166.9,77.8c0,2.8,2.3,5,5.1,4.9c2.8,0,5.1-2.2,5.1-4.9c0-2.8-2.3-5-5.1-4.9
			C169.2,72.8,166.9,75.1,166.9,77.8"/>
		<path id="Trazado_243-2" class="st3" d="M216.5,54.7c0,2.8,2.3,5,5.1,4.9c2.8,0,5.1-2.2,5.1-4.9c0-2.8-2.3-5-5.1-4.9
			C218.8,49.8,216.6,52,216.5,54.7"/>
		<path id="Trazado_244-2" class="st3" d="M240.4,77.8c0,2.8,2.3,5,5.1,4.9c2.8,0,5.1-2.2,5.1-4.9c0-2.8-2.3-5-5.1-4.9
			C242.7,72.8,240.4,75.1,240.4,77.8"/>
		<path id="Trazado_245-2" class="st3" d="M359.6,54.7c0,2.8,2.3,5,5.1,4.9c2.8,0,5.1-2.2,5.1-4.9c0-2.8-2.3-5-5.1-4.9
			C362,49.8,359.7,52,359.6,54.7"/>
		<path id="Trazado_246-2" class="st1" d="M25.7,54.7c0,2.8,2.3,5,5.1,4.9c2.8,0,5.1-2.2,5.1-4.9c0-2.8-2.3-5-5.1-4.9
			C28,49.8,25.7,52,25.7,54.7"/>
		<path id="Trazado_247-2" class="st1" d="M97.2,31.7c0,2.8,2.3,5,5.1,4.9c2.8,0,5.1-2.2,5.1-4.9c0-2.8-2.3-5-5.1-4.9
			C99.6,26.7,97.3,28.9,97.2,31.7"/>
		<path id="Trazado_248-2" class="st1" d="M144.9,77.8c0,2.8,2.3,5,5.1,4.9c2.8,0,5.1-2.2,5.1-4.9c0-2.8-2.3-5-5.1-4.9
			C147.3,72.8,145,75.1,144.9,77.8"/>
		<path id="Trazado_249-2" class="st1" d="M192.6,100.9c0,2.8,2.3,5,5.1,4.9c2.8,0,5.1-2.2,5.1-4.9c0-2.8-2.3-5-5.1-4.9
			C195,95.9,192.7,98.1,192.6,100.9"/>
		<path id="Trazado_250-2" class="st1" d="M240.4,54.7c0,2.8,2.3,5,5.1,4.9c2.8,0,5.1-2.2,5.1-4.9c0-2.8-2.3-5-5.1-4.9
			C242.7,49.8,240.4,52,240.4,54.7"/>
		<path id="Trazado_251-2" class="st1" d="M336,31.7c0,2.7,2.2,4.8,4.9,4.7c2.7,0,4.9-2.1,4.9-4.7c0,0,0,0,0,0
			c0-2.7-2.2-4.8-4.9-4.7c0,0,0,0,0,0C338.2,26.9,336,29,336,31.7C336,31.7,336,31.7,336,31.7"/>
		<path id="Trazado_252-2" class="st1" d="M439.8,54.7c0,2.8,2.3,5,5.1,4.9c2.8,0,5.1-2.2,5.1-4.9c0-2.8-2.3-5-5.1-4.9
			C442.2,49.8,439.9,52,439.8,54.7"/>
		<path id="Trazado_253-2" class="st4" d="M25.7,77.8c0,2.8,2.3,5,5.1,4.9c2.8,0,5.1-2.2,5.1-4.9c0-2.8-2.3-5-5.1-4.9
			C28,72.8,25.7,75.1,25.7,77.8"/>
		<path id="Trazado_254-2" class="st4" d="M97.2,54.7c0,2.8,2.3,5,5.1,4.9c2.8,0,5.1-2.2,5.1-4.9c0-2.8-2.3-5-5.1-4.9
			C99.6,49.8,97.3,52,97.2,54.7"/>
		<path id="Trazado_255-2" class="st4" d="M144.9,100.9c0,2.8,2.3,5,5.1,4.9c2.8,0,5.1-2.2,5.1-4.9c0-2.8-2.3-5-5.1-4.9
			C147.3,95.9,145,98.1,144.9,100.9"/>
		<path id="Trazado_256-2" class="st4" d="M192.6,124c0,2.8,2.3,5,5.1,4.9c2.8,0,5.1-2.2,5.1-4.9c0-2.8-2.3-5-5.1-4.9
			C195,119,192.7,121.2,192.6,124"/>
		<path id="Trazado_257-2" class="st4" d="M335.8,100.9c0,2.8,2.3,5,5.1,4.9c2.8,0,5.1-2.2,5.1-4.9c0-2.8-2.3-5-5.1-4.9
			C338.1,95.9,335.9,98.1,335.8,100.9"/>
		<path id="Trazado_258-2" class="st4" d="M463.4,55.4c0,2.7,2.3,4.9,5,4.9c2.7,0,5-2.1,5-4.9c0-2.7-2.3-4.9-5-4.9
			C465.7,50.5,463.4,52.7,463.4,55.4"/>
		<path id="Trazado_259-2" class="st5" d="M49.5,77.8c0,2.8,2.3,5,5.1,4.9c2.8,0,5.1-2.2,5.1-4.9c0-2.8-2.3-5-5.1-4.9
			C51.9,72.8,49.6,75.1,49.5,77.8"/>
		<path id="Trazado_260-2" class="st5" d="M97.2,124c0,2.8,2.3,5,5.1,4.9c0,0,0,0,0,0c2.8,0,5.1-2.2,5.1-4.9c0-2.8-2.3-5-5.1-4.9
			C99.6,119,97.3,121.2,97.2,124C97.2,124,97.2,124,97.2,124"/>
		<path id="Trazado_261-2" class="st5" d="M192.6,31.7c0,2.8,2.3,5,5.1,4.9c2.8,0,5.1-2.2,5.1-4.9c0-2.8-2.3-5-5.1-4.9
			C195,26.7,192.7,28.9,192.6,31.7"/>
		<path id="Trazado_262-2" class="st5" d="M216.5,77.8c0,2.8,2.3,5,5.1,4.9c2.8,0,5.1-2.2,5.1-4.9c0-2.8-2.3-5-5.1-4.9
			C218.8,72.8,216.6,75.1,216.5,77.8"/>
		<path id="Trazado_263-2" class="st5" d="M439.9,77.8c0,2.8,2.3,5,5.1,4.9c2.8,0,5.1-2.2,5.1-4.9c0-2.8-2.3-5-5.1-4.9
			C442.3,72.8,440,75.1,439.9,77.8"/>
		<path id="Trazado_264-2" class="st5" d="M264.2,54.7c0,2.8,2.3,5,5.1,4.9c2.8,0,5.1-2.2,5.1-4.9c0-2.8-2.3-5-5.1-4.9
			C266.6,49.8,264.3,52,264.2,54.7"/>
		<path id="Trazado_265-2" class="st5" d="M335.8,124c0,2.8,2.3,5,5.1,4.9c2.8,0,5.1-2.2,5.1-4.9c0-2.8-2.3-5-5.1-4.9
			C338.1,119,335.9,121.2,335.8,124"/>
		<path id="Trazado_266-2" class="st6" d="M25.7,32.6c0,2.7,2.3,4.9,5,4.9c2.7,0,5-2.1,5-4.9c0-2.7-2.3-4.9-5-4.9
			C28,27.7,25.7,29.9,25.7,32.6"/>
		<path id="Trazado_267-2" class="st6" d="M49.2,55.4c0,2.7,2.3,4.9,5,4.9c2.7,0,5-2.1,5-4.9c0-2.7-2.3-4.9-5-4.9
			C51.5,50.5,49.2,52.7,49.2,55.4"/>
		<path id="Trazado_268-2" class="st6" d="M49.2,100.9c0,2.7,2.3,4.9,5,4.9c2.7,0,5-2.1,5-4.9c0-2.7-2.3-4.9-5-4.9
			C51.5,96,49.2,98.2,49.2,100.9"/>
		<path id="Trazado_269-2" class="st6" d="M49.2,123.7c0,2.7,2.3,4.9,5,4.9c2.7,0,5-2.1,5-4.9c0-2.7-2.3-4.9-5-4.9
			C51.5,118.8,49.2,120.9,49.2,123.7C49.2,123.7,49.2,123.7,49.2,123.7"/>
		<path id="Trazado_270-2" class="st6" d="M49.2,169.2c0,2.7,2.3,4.9,5,4.9c2.7,0,5-2.1,5-4.9c0-2.7-2.3-4.9-5-4.9
			C51.5,164.3,49.2,166.5,49.2,169.2"/>
		<path id="Trazado_271-2" class="st6" d="M73.4,32.6c0,2.7,2.3,4.9,5,4.9c2.7,0,5-2.1,5-4.9c0-2.7-2.3-4.9-5-4.9
			C75.7,27.7,73.4,29.9,73.4,32.6"/>
		<path id="Trazado_272-2" class="st6" d="M73.4,55.4c0,2.7,2.3,4.9,5,4.9c2.7,0,5-2.1,5-4.9c0-2.7-2.3-4.9-5-4.9
			C75.7,50.5,73.4,52.7,73.4,55.4"/>
		<path id="Trazado_273-2" class="st6" d="M73.4,78.2c0,2.7,2.3,4.9,5,4.9c2.7,0,5-2.1,5-4.9c0-2.7-2.3-4.9-5-4.9
			C75.7,73.2,73.4,75.4,73.4,78.2"/>
		<path id="Trazado_274-2" class="st6" d="M73.5,123.7c0,2.7,2.3,4.9,5,4.9c2.7,0,5-2.1,5-4.9c0-2.7-2.3-4.9-5-4.9
			C75.8,118.8,73.6,120.9,73.5,123.7C73.5,123.7,73.5,123.7,73.5,123.7"/>
		<path id="Trazado_275-2" class="st6" d="M97.3,100.9c0,2.7,2.3,4.9,5,4.9c2.7,0,5-2.1,5-4.9c0-2.7-2.3-4.9-5-4.9
			C99.6,96,97.4,98.2,97.3,100.9"/>
		<path id="Trazado_276-2" class="st6" d="M121,32.6c0,2.7,2.3,4.9,5,4.9c2.7,0,5-2.1,5-4.9c0-2.7-2.3-4.9-5-4.9
			C123.3,27.7,121.1,29.9,121,32.6"/>
		<path id="Trazado_277-2" class="st6" d="M121,78.2c0,2.7,2.3,4.9,5,4.9c2.7,0,5-2.1,5-4.9c0-2.7-2.3-4.9-5-4.9
			C123.3,73.2,121.1,75.4,121,78.2"/>
		<path id="Trazado_278-2" class="st6" d="M121.2,123.7c0,2.7,2.3,4.9,5,4.9c2.7,0,5-2.1,5-4.9c0-2.7-2.3-4.9-5-4.9c0,0,0,0,0,0
			C123.5,118.8,121.2,120.9,121.2,123.7"/>
		<path id="Trazado_279-2" class="st6" d="M192.6,54.7c0,2.8,2.3,5,5.1,4.9c2.8,0,5.1-2.2,5.1-4.9c0-2.8-2.3-5-5.1-4.9
			C195,49.8,192.7,52,192.6,54.7"/>
		<path id="Trazado_280-2" class="st6" d="M144.9,31.7c0,2.8,2.3,5,5.1,4.9c2.8,0,5.1-2.2,5.1-4.9c0-2.8-2.3-5-5.1-4.9
			C147.3,26.7,145,28.9,144.9,31.7"/>
		<path id="Trazado_281-2" class="st6" d="M145.3,55.4c0,2.7,2.3,4.9,5,4.9c2.7,0,5-2.1,5-4.9c0-2.7-2.3-4.9-5-4.9
			C147.6,50.5,145.4,52.7,145.3,55.4"/>
		<path id="Trazado_282-2" class="st6" d="M166.8,32.6c0,2.7,2.3,4.9,5,4.9c2.7,0,5-2.1,5-4.9c0-2.7-2.3-4.9-5-4.9
			C169.1,27.7,166.9,29.9,166.8,32.6"/>
		<path id="Trazado_283-2" class="st6" d="M166.8,55.4c0,2.7,2.3,4.9,5,4.9c2.7,0,5-2.1,5-4.9c0-2.7-2.3-4.9-5-4.9
			C169.1,50.5,166.9,52.7,166.8,55.4"/>
		<path id="Trazado_284-2" class="st6" d="M166.9,100.9c0,2.8,2.3,5,5.1,4.9c0,0,0,0,0,0c2.8,0,5.1-2.2,5.1-4.9c0-2.8-2.3-5-5.1-4.9
			C169.2,95.9,166.9,98.1,166.9,100.9C166.9,100.9,166.9,100.9,166.9,100.9"/>
		<path id="Trazado_285-2" class="st6" d="M166.9,124c0,2.8,2.3,5,5.1,4.9c0,0,0,0,0,0c2.8,0,5.1-2.2,5.1-4.9c0-2.8-2.3-5-5.1-4.9
			C169.2,119,166.9,121.2,166.9,124C166.9,124,166.9,124,166.9,124"/>
		<path id="Trazado_286-2" class="st6" d="M216.5,31.7c0,2.8,2.3,5,5.1,4.9c2.8,0,5.1-2.2,5.1-4.9c0-2.8-2.3-5-5.1-4.9
			C218.8,26.7,216.6,28.9,216.5,31.7"/>
		<path id="Trazado_287-2" class="st6" d="M264.2,31.7c0,2.8,2.3,5,5.1,4.9c2.8,0,5.1-2.2,5.1-4.9c0-2.8-2.3-5-5.1-4.9
			C266.6,26.7,264.3,28.9,264.2,31.7"/>
		<path id="Trazado_288-2" class="st6" d="M311.9,31.7c0,2.8,2.3,5,5.1,4.9c2.8,0,5.1-2.2,5.1-4.9c0-2.8-2.3-5-5.1-4.9
			C314.3,26.7,312,28.9,311.9,31.7"/>
		<path id="Trazado_289-2" class="st6" d="M383.5,54.7c0,2.8,2.3,5,5.1,4.9c2.8,0,5.1-2.2,5.1-4.9c0-2.8-2.3-5-5.1-4.9
			C385.8,49.8,383.5,52,383.5,54.7"/>
	</g>
	<g id="Grupo_1128" transform="translate(915.702 1308.895)">
		<path id="Trazado_231-3" class="st0" d="M412.8,147.1c0,2.7-2.2,4.9-4.9,4.9s-4.9-2.2-4.9-4.9c0-2.7,2.2-4.9,4.9-4.9c0,0,0,0,0,0
			C410.6,142.1,412.8,144.4,412.8,147.1"/>
		<path id="Trazado_232-3" class="st1" d="M412.8,170.2c0,2.7-2.2,4.9-4.9,4.9s-4.9-2.2-4.9-4.9s2.2-4.9,4.9-4.9c0,0,0,0,0,0
			C410.6,165.2,412.8,167.4,412.8,170.2"/>
		<path id="Trazado_233-3" class="st0" d="M366.6,100.9c0,2.7-2.2,4.9-4.9,4.9c-2.7,0-4.9-2.2-4.9-4.9s2.2-4.9,4.9-4.9c0,0,0,0,0,0
			C364.4,96,366.6,98.2,366.6,100.9C366.6,100.9,366.6,100.9,366.6,100.9"/>
		<path id="Trazado_234-3" class="st0" d="M297.4,77.8c0,2.7-2.2,4.9-4.9,4.9s-4.9-2.2-4.9-4.9c0-2.7,2.2-4.9,4.9-4.9c0,0,0,0,0,0
			C295.2,72.9,297.4,75.1,297.4,77.8"/>
		<path id="Trazado_235-3" class="st0" d="M251.2,31.7c0,2.7-2.2,4.9-4.9,4.9c-2.7,0-4.9-2.2-4.9-4.9s2.2-4.9,4.9-4.9c0,0,0,0,0,0
			C249,26.7,251.2,28.9,251.2,31.7"/>
		<path id="Trazado_236-3" class="st2" d="M412.8,100.9c0,2.7-2.2,4.9-4.9,4.9c-2.7,0-4.9-2.2-4.9-4.9s2.2-4.9,4.9-4.9c0,0,0,0,0,0
			C410.6,96,412.8,98.2,412.8,100.9C412.8,100.9,412.8,100.9,412.8,100.9"/>
		<path id="Trazado_237-3" class="st2" d="M366.6,54.7c0,2.7-2.2,4.9-4.9,4.9s-4.9-2.2-4.9-4.9s2.2-4.9,4.9-4.9c0,0,0,0,0,0
			C364.4,49.8,366.6,52,366.6,54.7"/>
		<path id="Trazado_238-3" class="st2" d="M205,31.7c0,2.7-2.2,4.9-4.9,4.9c-2.7,0-4.9-2.2-4.9-4.9s2.2-4.9,4.9-4.9c0,0,0,0,0,0
			C202.8,26.7,205,28.9,205,31.7"/>
		<path id="Trazado_239-3" class="st0" d="M182,54.7c0,2.7-2.2,4.9-4.9,4.9c-2.7,0-4.9-2.2-4.9-4.9s2.2-4.9,4.9-4.9c0,0,0,0,0,0
			C179.8,49.8,182,52,182,54.7"/>
		<path id="Trazado_240-3" class="st3" d="M435.9,31.7c0,2.7-2.2,4.9-4.9,4.9s-4.9-2.2-4.9-4.9s2.2-4.9,4.9-4.9c0,0,0,0,0,0
			C433.7,26.7,435.9,28.9,435.9,31.7"/>
		<path id="Trazado_241-3" class="st3" d="M389.7,77.8c0,2.7-2.2,4.9-4.9,4.9s-4.9-2.2-4.9-4.9c0-2.7,2.2-4.9,4.9-4.9c0,0,0,0,0,0
			C387.5,72.9,389.7,75.1,389.7,77.8"/>
		<path id="Trazado_242-3" class="st3" d="M322.3,77.8c0,2.7-2.2,4.9-4.9,4.9s-4.9-2.2-4.9-4.9c0-2.7,2.2-4.9,4.9-4.9c0,0,0,0,0,0
			C320.1,72.9,322.3,75.1,322.3,77.8"/>
		<path id="Trazado_243-3" class="st3" d="M274.3,54.7c0,2.7-2.2,4.9-4.9,4.9s-4.9-2.2-4.9-4.9s2.2-4.9,4.9-4.9c0,0,0,0,0,0
			C272.1,49.8,274.3,52,274.3,54.7"/>
		<path id="Trazado_244-3" class="st3" d="M251.2,77.8c0,2.7-2.2,4.9-4.9,4.9c-2.7,0-4.9-2.2-4.9-4.9c0-2.7,2.2-4.9,4.9-4.9
			c0,0,0,0,0,0C249,72.9,251.2,75.1,251.2,77.8"/>
		<path id="Trazado_245-3" class="st3" d="M135.8,54.7c0,2.7-2.2,4.9-4.9,4.9c-2.7,0-4.9-2.2-4.9-4.9s2.2-4.9,4.9-4.9c0,0,0,0,0,0
			C133.6,49.8,135.8,52,135.8,54.7"/>
		<path id="Trazado_246-3" class="st1" d="M459,54.7c0,2.7-2.2,4.9-4.9,4.9s-4.9-2.2-4.9-4.9s2.2-4.9,4.9-4.9c0,0,0,0,0,0
			C456.8,49.8,459,52,459,54.7"/>
		<path id="Trazado_247-3" class="st1" d="M389.7,31.7c0,2.7-2.2,4.9-4.9,4.9s-4.9-2.2-4.9-4.9s2.2-4.9,4.9-4.9c0,0,0,0,0,0
			C387.5,26.7,389.7,28.9,389.7,31.7"/>
		<path id="Trazado_248-3" class="st1" d="M343.5,77.8c0,2.7-2.2,4.9-4.9,4.9s-4.9-2.2-4.9-4.9c0-2.7,2.2-4.9,4.9-4.9c0,0,0,0,0,0
			C341.3,72.9,343.5,75.1,343.5,77.8"/>
		<path id="Trazado_249-3" class="st1" d="M297.4,100.9c0,2.7-2.2,4.9-4.9,4.9c-2.7,0-4.9-2.2-4.9-4.9s2.2-4.9,4.9-4.9c0,0,0,0,0,0
			C295.2,96,297.4,98.2,297.4,100.9C297.4,100.9,297.4,100.9,297.4,100.9"/>
		<path id="Trazado_250-3" class="st1" d="M251.2,54.7c0,2.7-2.2,4.9-4.9,4.9c-2.7,0-4.9-2.2-4.9-4.9s2.2-4.9,4.9-4.9c0,0,0,0,0,0
			C249,49.8,251.2,52,251.2,54.7"/>
		<path id="Trazado_251-3" class="st1" d="M158.7,31.7c0,2.6-2.1,4.7-4.7,4.7c-2.6,0-4.7-2.1-4.7-4.7c0-2.6,2.1-4.7,4.7-4.7
			c0,0,0,0,0,0C156.6,26.9,158.7,29.1,158.7,31.7"/>
		<path id="Trazado_252-3" class="st1" d="M58.2,54.7c0,2.7-2.2,4.9-4.9,4.9s-4.9-2.2-4.9-4.9s2.2-4.9,4.9-4.9c0,0,0,0,0,0
			C56,49.8,58.2,52,58.2,54.7"/>
		<path id="Trazado_253-3" class="st4" d="M459,77.8c0,2.7-2.2,4.9-4.9,4.9s-4.9-2.2-4.9-4.9c0-2.7,2.2-4.9,4.9-4.9c0,0,0,0,0,0
			C456.8,72.9,459,75.1,459,77.8"/>
		<path id="Trazado_254-3" class="st4" d="M389.7,54.7c0,2.7-2.2,4.9-4.9,4.9s-4.9-2.2-4.9-4.9s2.2-4.9,4.9-4.9c0,0,0,0,0,0
			C387.5,49.8,389.7,52,389.7,54.7"/>
		<path id="Trazado_255-3" class="st4" d="M343.6,100.9c0,2.7-2.2,4.9-4.9,4.9c-2.7,0-4.9-2.2-4.9-4.9s2.2-4.9,4.9-4.9c0,0,0,0,0,0
			C341.3,96,343.6,98.2,343.6,100.9C343.6,100.9,343.6,100.9,343.6,100.9"/>
		<path id="Trazado_256-3" class="st4" d="M297.4,124c0,2.7-2.2,4.9-4.9,4.9s-4.9-2.2-4.9-4.9s2.2-4.9,4.9-4.9c0,0,0,0,0,0
			C295.2,119,297.4,121.3,297.4,124C297.4,124,297.4,124,297.4,124"/>
		<path id="Trazado_257-3" class="st4" d="M158.9,100.9c0,2.7-2.2,4.9-4.9,4.9c-2.7,0-4.9-2.2-4.9-4.9s2.2-4.9,4.9-4.9c0,0,0,0,0,0
			C156.6,96,158.9,98.2,158.9,100.9C158.9,100.9,158.9,100.9,158.9,100.9"/>
		<path id="Trazado_258-3" class="st4" d="M35.4,55.4c0,2.7-2.2,4.9-4.9,4.9c-2.7,0-4.9-2.2-4.9-4.9c0-2.7,2.2-4.9,4.9-4.9
			c0,0,0,0,0,0C33.2,50.5,35.4,52.7,35.4,55.4"/>
		<path id="Trazado_259-3" class="st5" d="M435.9,77.8c0,2.7-2.2,4.9-4.9,4.9s-4.9-2.2-4.9-4.9c0-2.7,2.2-4.9,4.9-4.9c0,0,0,0,0,0
			C433.7,72.9,435.9,75.1,435.9,77.8"/>
		<path id="Trazado_260-3" class="st5" d="M389.7,124c0,2.7-2.2,4.9-4.9,4.9s-4.9-2.2-4.9-4.9s2.2-4.9,4.9-4.9c0,0,0,0,0,0
			C387.5,119,389.7,121.3,389.7,124C389.7,124,389.7,124,389.7,124"/>
		<path id="Trazado_261-3" class="st5" d="M297.4,31.7c0,2.7-2.2,4.9-4.9,4.9s-4.9-2.2-4.9-4.9s2.2-4.9,4.9-4.9c0,0,0,0,0,0
			C295.2,26.7,297.4,28.9,297.4,31.7"/>
		<path id="Trazado_262-3" class="st5" d="M274.3,77.8c0,2.7-2.2,4.9-4.9,4.9s-4.9-2.2-4.9-4.9c0-2.7,2.2-4.9,4.9-4.9c0,0,0,0,0,0
			C272.1,72.9,274.3,75.1,274.3,77.8"/>
		<path id="Trazado_263-3" class="st5" d="M58.1,77.8c0,2.7-2.2,4.9-4.9,4.9s-4.9-2.2-4.9-4.9c0-2.7,2.2-4.9,4.9-4.9c0,0,0,0,0,0
			C55.9,72.9,58.1,75.1,58.1,77.8"/>
		<path id="Trazado_264-3" class="st5" d="M228.1,54.7c0,2.7-2.2,4.9-4.9,4.9c-2.7,0-4.9-2.2-4.9-4.9s2.2-4.9,4.9-4.9c0,0,0,0,0,0
			C225.9,49.8,228.1,52,228.1,54.7"/>
		<path id="Trazado_265-3" class="st5" d="M158.9,124c0,2.7-2.2,4.9-4.9,4.9c-2.7,0-4.9-2.2-4.9-4.9s2.2-4.9,4.9-4.9c0,0,0,0,0,0
			C156.6,119,158.9,121.3,158.9,124C158.9,124,158.9,124,158.9,124"/>
		<path id="Trazado_266-3" class="st6" d="M459,32.6c0,2.7-2.2,4.9-4.9,4.9s-4.9-2.2-4.9-4.9s2.2-4.9,4.9-4.9c0,0,0,0,0,0
			C456.8,27.8,459,29.9,459,32.6"/>
		<path id="Trazado_267-3" class="st6" d="M436.2,55.4c0,2.7-2.2,4.9-4.9,4.9c-2.7,0-4.9-2.2-4.9-4.9c0-2.7,2.2-4.9,4.9-4.9
			c0,0,0,0,0,0C434,50.5,436.2,52.7,436.2,55.4"/>
		<path id="Trazado_268-3" class="st6" d="M436.2,100.9c0,2.7-2.2,4.9-4.9,4.9c-2.7,0-4.9-2.2-4.9-4.9c0-2.7,2.2-4.9,4.9-4.9
			C434,96,436.2,98.2,436.2,100.9C436.2,100.9,436.2,100.9,436.2,100.9"/>
		<path id="Trazado_269-3" class="st6" d="M436.2,123.7c0,2.7-2.2,4.9-4.9,4.9c-2.7,0-4.9-2.2-4.9-4.9c0-2.7,2.2-4.9,4.9-4.9
			C434,118.8,436.2,121,436.2,123.7"/>
		<path id="Trazado_270-3" class="st6" d="M436.2,169.2c0,2.7-2.2,4.9-4.9,4.9s-4.9-2.2-4.9-4.9s2.2-4.9,4.9-4.9c0,0,0,0,0,0
			C434,164.3,436.2,166.5,436.2,169.2C436.2,169.2,436.2,169.2,436.2,169.2"/>
		<path id="Trazado_271-3" class="st6" d="M412.8,32.6c0,2.7-2.2,4.9-4.9,4.9s-4.9-2.2-4.9-4.9s2.2-4.9,4.9-4.9
			S412.8,29.9,412.8,32.6"/>
		<path id="Trazado_272-3" class="st6" d="M412.8,55.4c0,2.7-2.2,4.9-4.9,4.9s-4.9-2.2-4.9-4.9c0-2.7,2.2-4.9,4.9-4.9
			S412.8,52.7,412.8,55.4"/>
		<path id="Trazado_273-3" class="st6" d="M412.8,78.2c0,2.7-2.2,4.9-4.9,4.9s-4.9-2.2-4.9-4.9s2.2-4.9,4.9-4.9
			S412.8,75.5,412.8,78.2"/>
		<path id="Trazado_274-3" class="st6" d="M412.7,123.7c0,2.7-2.2,4.9-4.9,4.9c-2.7,0-4.9-2.2-4.9-4.9c0-2.7,2.2-4.9,4.9-4.9
			C410.5,118.8,412.7,121,412.7,123.7"/>
		<path id="Trazado_275-3" class="st6" d="M389.6,100.9c0,2.7-2.2,4.9-4.9,4.9c-2.7,0-4.9-2.2-4.9-4.9c0-2.7,2.2-4.9,4.9-4.9
			C387.4,96,389.6,98.2,389.6,100.9C389.6,100.9,389.6,100.9,389.6,100.9"/>
		<path id="Trazado_276-3" class="st6" d="M366.7,32.6c0,2.7-2.2,4.9-4.9,4.9s-4.9-2.2-4.9-4.9s2.2-4.9,4.9-4.9
			S366.7,29.9,366.7,32.6"/>
		<path id="Trazado_277-3" class="st6" d="M366.7,78.2c0,2.7-2.2,4.9-4.9,4.9s-4.9-2.2-4.9-4.9s2.2-4.9,4.9-4.9
			S366.7,75.5,366.7,78.2"/>
		<path id="Trazado_278-3" class="st6" d="M366.5,123.7c0,2.7-2.2,4.9-4.9,4.9c-2.7,0-4.9-2.2-4.9-4.9c0-2.7,2.2-4.9,4.9-4.9
			c0,0,0,0,0,0C364.4,118.8,366.5,121,366.5,123.7"/>
		<path id="Trazado_279-3" class="st6" d="M297.4,54.7c0,2.7-2.2,4.9-4.9,4.9s-4.9-2.2-4.9-4.9s2.2-4.9,4.9-4.9c0,0,0,0,0,0
			C295.2,49.8,297.4,52,297.4,54.7"/>
		<path id="Trazado_280-3" class="st6" d="M343.5,31.7c0,2.7-2.2,4.9-4.9,4.9s-4.9-2.2-4.9-4.9s2.2-4.9,4.9-4.9c0,0,0,0,0,0
			C341.3,26.7,343.5,28.9,343.5,31.7"/>
		<path id="Trazado_281-3" class="st6" d="M343.2,55.4c0,2.7-2.2,4.9-4.9,4.9s-4.9-2.2-4.9-4.9c0-2.7,2.2-4.9,4.9-4.9
			S343.2,52.7,343.2,55.4"/>
		<path id="Trazado_282-3" class="st6" d="M322.4,32.6c0,2.7-2.2,4.9-4.9,4.9s-4.9-2.2-4.9-4.9s2.2-4.9,4.9-4.9
			S322.4,29.9,322.4,32.6"/>
		<path id="Trazado_283-3" class="st6" d="M322.4,55.4c0,2.7-2.2,4.9-4.9,4.9s-4.9-2.2-4.9-4.9c0-2.7,2.2-4.9,4.9-4.9
			S322.4,52.7,322.4,55.4"/>
		<path id="Trazado_284-3" class="st6" d="M322.3,100.9c0,2.7-2.2,4.9-4.9,4.9c-2.7,0-4.9-2.2-4.9-4.9s2.2-4.9,4.9-4.9c0,0,0,0,0,0
			C320.1,96,322.3,98.2,322.3,100.9C322.3,100.9,322.3,100.9,322.3,100.9"/>
		<path id="Trazado_285-3" class="st6" d="M322.3,124c0,2.7-2.2,4.9-4.9,4.9s-4.9-2.2-4.9-4.9s2.2-4.9,4.9-4.9c0,0,0,0,0,0
			C320.1,119,322.3,121.3,322.3,124C322.3,124,322.3,124,322.3,124"/>
		<path id="Trazado_286-3" class="st6" d="M274.3,31.7c0,2.7-2.2,4.9-4.9,4.9s-4.9-2.2-4.9-4.9s2.2-4.9,4.9-4.9c0,0,0,0,0,0
			C272.1,26.7,274.3,28.9,274.3,31.7"/>
		<path id="Trazado_287-3" class="st6" d="M228.1,31.7c0,2.7-2.2,4.9-4.9,4.9c-2.7,0-4.9-2.2-4.9-4.9s2.2-4.9,4.9-4.9c0,0,0,0,0,0
			C225.9,26.7,228.1,28.9,228.1,31.7"/>
		<path id="Trazado_288-3" class="st6" d="M182,31.7c0,2.7-2.2,4.9-4.9,4.9c-2.7,0-4.9-2.2-4.9-4.9s2.2-4.9,4.9-4.9c0,0,0,0,0,0
			C179.8,26.7,182,28.9,182,31.7"/>
		<path id="Trazado_289-3" class="st6" d="M112.7,54.7c0,2.7-2.2,4.9-4.9,4.9c-2.7,0-4.9-2.2-4.9-4.9s2.2-4.9,4.9-4.9c0,0,0,0,0,0
			C110.5,49.8,112.7,52,112.7,54.7"/>
	</g>
</g>
</svg>
